<?xml version="1.0" encoding="utf-8"?>
<!-- Generator: Adobe Illustrator 14.0.0, SVG Export Plug-In . SVG Version: 6.00 Build 43363)  -->
<!DOCTYPE svg PUBLIC "-//W3C//DTD SVG 1.1//EN" "http://www.w3.org/Graphics/SVG/1.1/DTD/svg11.dtd">
<svg version="1.1" id="Layer_1" xmlns="http://www.w3.org/2000/svg" xmlns:xlink="http://www.w3.org/1999/xlink" x="0px" y="0px"
	 width="179.583px" height="191.213px" viewBox="0 0 179.583 191.213" enable-background="new 0 0 179.583 191.213"
	 xml:space="preserve">
<g>
	<path fill="#FFFFFF" d="M179.583,91.242c-2-19.2-9.8-36.2-23.5-51.1c-13.6-14.7-29.8-23.9-48.7-27.3c0.8,2.2,1.2,4.5,1.1,7.1
		c-0.1,1.7-0.4,3.3-1.1,4.9c20.4,1.8,37.7,10.3,51.7,25.6C170.183,62.442,176.983,76.042,179.583,91.242z"/>
	<path fill="#FFFFFF" d="M28.983,35.142c-18.3,16.8-27.9,37.7-28.9,62.5c-1,24.9,7,46.4,23.8,64.6c16.9,18.3,37.7,27.9,62.6,28.9
		c21.8,0.8,41-5.2,57.8-18c-14.1,9.5-30,13.9-47.8,13.2c-22.4-0.9-41.2-9.6-56.4-26c-15.1-16.4-22.3-35.8-21.4-58.1
		c0.9-22.4,9.6-41.2,26-56.3c13.8-12.8,29.8-19.9,47.9-21.3c0.9-1.3,1.5-3.2,1.5-5.7c0.1-2.5-0.8-5.1-2.5-7.7
		C67.483,10.742,46.683,18.742,28.983,35.142z"/>
	<path fill="#FFFFFF" d="M101.183,29.342c3.2-3.9,4.5-8.3,4-13.2c-0.5-5-2.7-9-6.6-12.1c-3.9-3.2-8.2-4.5-13.1-3.9
		c-3.8,0.3-7,1.7-9.6,3.9c1.2-0.4,2.5-0.7,3.8-0.8c4.3-0.5,8.2,0.7,11.5,3.4c3.4,2.8,5.4,6.3,5.8,10.6c0.5,4.4-0.7,8.2-3.4,11.6
		c-2.8,3.4-6.3,5.3-10.6,5.8c-0.9,0-1.7,0.1-2.4,0.1c2.6,1.1,5.5,1.5,8.6,1.1C94.083,35.342,98.083,33.142,101.183,29.342z"/>
</g>
</svg>
